<?xml version="1.0" encoding="utf-8" standalone="no"?>
<!DOCTYPE svg PUBLIC "-//W3C//DTD SVG 1.1//EN"
  "http://www.w3.org/Graphics/SVG/1.1/DTD/svg11.dtd">
<!-- Created with matplotlib (https://matplotlib.org/) -->
<svg height="345.6pt" version="1.1" viewBox="0 0 460.8 345.6" width="460.8pt" xmlns="http://www.w3.org/2000/svg" xmlns:xlink="http://www.w3.org/1999/xlink">
 <defs>
  <style type="text/css">
*{stroke-linecap:butt;stroke-linejoin:round;}
  </style>
 </defs>
 <g id="figure_1">
  <g id="patch_1">
   <path d="M 0 345.6 
L 460.8 345.6 
L 460.8 0 
L 0 0 
z
" style="fill:#ffffff;"/>
  </g>
  <g id="axes_1">
   <g id="patch_2">
    <path d="M 69.77 269.575464 
L 447.48 269.575464 
L 447.48 26.88 
L 69.77 26.88 
z
" style="fill:#ffffff;"/>
   </g>
   <g id="patch_3">
    <path clip-path="url(#p13615a91e1)" d="M 86.938636 269.575464 
L 95.114177 269.575464 
L 95.114177 120.821626 
L 86.938636 120.821626 
z
" style="fill:#87ceeb;"/>
   </g>
   <g id="patch_4">
    <path clip-path="url(#p13615a91e1)" d="M 110.297325 269.575464 
L 118.472866 269.575464 
L 118.472866 138.943647 
L 110.297325 138.943647 
z
" style="fill:#87ceeb;"/>
   </g>
   <g id="patch_5">
    <path clip-path="url(#p13615a91e1)" d="M 133.656014 269.575464 
L 141.831555 269.575464 
L 141.831555 151.85266 
L 133.656014 151.85266 
z
" style="fill:#87ceeb;"/>
   </g>
   <g id="patch_6">
    <path clip-path="url(#p13615a91e1)" d="M 157.014703 269.575464 
L 165.190244 269.575464 
L 165.190244 147.809454 
L 157.014703 147.809454 
z
" style="fill:#87ceeb;"/>
   </g>
   <g id="patch_7">
    <path clip-path="url(#p13615a91e1)" d="M 180.373392 269.575464 
L 188.548933 269.575464 
L 188.548933 141.901399 
L 180.373392 141.901399 
z
" style="fill:#87ceeb;"/>
   </g>
   <g id="patch_8">
    <path clip-path="url(#p13615a91e1)" d="M 203.732081 269.575464 
L 211.907622 269.575464 
L 211.907622 122.885902 
L 203.732081 122.885902 
z
" style="fill:#87ceeb;"/>
   </g>
   <g id="patch_9">
    <path clip-path="url(#p13615a91e1)" d="M 227.09077 269.575464 
L 235.266311 269.575464 
L 235.266311 131.419899 
L 227.09077 131.419899 
z
" style="fill:#87ceeb;"/>
   </g>
   <g id="patch_10">
    <path clip-path="url(#p13615a91e1)" d="M 250.449459 269.575464 
L 258.625 269.575464 
L 258.625 159.236609 
L 250.449459 159.236609 
z
" style="fill:#87ceeb;"/>
   </g>
   <g id="patch_11">
    <path clip-path="url(#p13615a91e1)" d="M 273.808148 269.575464 
L 281.983689 269.575464 
L 281.983689 150.876481 
L 273.808148 150.876481 
z
" style="fill:#87ceeb;"/>
   </g>
   <g id="patch_12">
    <path clip-path="url(#p13615a91e1)" d="M 297.166837 269.575464 
L 305.342378 269.575464 
L 305.342378 128.538886 
L 297.166837 128.538886 
z
" style="fill:#87ceeb;"/>
   </g>
   <g id="patch_13">
    <path clip-path="url(#p13615a91e1)" d="M 320.525526 269.575464 
L 328.701067 269.575464 
L 328.701067 256.671125 
L 320.525526 256.671125 
z
" style="fill:#87ceeb;"/>
   </g>
   <g id="patch_14">
    <path clip-path="url(#p13615a91e1)" d="M 343.884215 269.575464 
L 352.059756 269.575464 
L 352.059756 265.069243 
L 343.884215 265.069243 
z
" style="fill:#87ceeb;"/>
   </g>
   <g id="patch_15">
    <path clip-path="url(#p13615a91e1)" d="M 367.242904 269.575464 
L 375.418445 269.575464 
L 375.418445 266.720257 
L 367.242904 266.720257 
z
" style="fill:#87ceeb;"/>
   </g>
   <g id="patch_16">
    <path clip-path="url(#p13615a91e1)" d="M 390.601592 269.575464 
L 398.777134 269.575464 
L 398.777134 267.434914 
L 390.601592 267.434914 
z
" style="fill:#87ceeb;"/>
   </g>
   <g id="patch_17">
    <path clip-path="url(#p13615a91e1)" d="M 413.960281 269.575464 
L 422.135823 269.575464 
L 422.135823 191.660861 
L 413.960281 191.660861 
z
" style="fill:#87ceeb;"/>
   </g>
   <g id="patch_18">
    <path clip-path="url(#p13615a91e1)" d="M 95.114177 269.575464 
L 103.289719 269.575464 
L 103.289719 82.169692 
L 95.114177 82.169692 
z
" style="fill:#cd5c5c;"/>
   </g>
   <g id="patch_19">
    <path clip-path="url(#p13615a91e1)" d="M 118.472866 269.575464 
L 126.648408 269.575464 
L 126.648408 45.032157 
L 118.472866 45.032157 
z
" style="fill:#cd5c5c;"/>
   </g>
   <g id="patch_20">
    <path clip-path="url(#p13615a91e1)" d="M 141.831555 269.575464 
L 150.007096 269.575464 
L 150.007096 51.322828 
L 141.831555 51.322828 
z
" style="fill:#cd5c5c;"/>
   </g>
   <g id="patch_21">
    <path clip-path="url(#p13615a91e1)" d="M 165.190244 269.575464 
L 173.365785 269.575464 
L 173.365785 78.964729 
L 165.190244 78.964729 
z
" style="fill:#cd5c5c;"/>
   </g>
   <g id="patch_22">
    <path clip-path="url(#p13615a91e1)" d="M 188.548933 269.575464 
L 196.724474 269.575464 
L 196.724474 83.726902 
L 188.548933 83.726902 
z
" style="fill:#cd5c5c;"/>
   </g>
   <g id="patch_23">
    <path clip-path="url(#p13615a91e1)" d="M 211.907622 269.575464 
L 220.083163 269.575464 
L 220.083163 94.337434 
L 211.907622 94.337434 
z
" style="fill:#cd5c5c;"/>
   </g>
   <g id="patch_24">
    <path clip-path="url(#p13615a91e1)" d="M 235.266311 269.575464 
L 243.441852 269.575464 
L 243.441852 72.518851 
L 235.266311 72.518851 
z
" style="fill:#cd5c5c;"/>
   </g>
   <g id="patch_25">
    <path clip-path="url(#p13615a91e1)" d="M 258.625 269.575464 
L 266.800541 269.575464 
L 266.800541 63.970096 
L 258.625 63.970096 
z
" style="fill:#cd5c5c;"/>
   </g>
   <g id="patch_26">
    <path clip-path="url(#p13615a91e1)" d="M 281.983689 269.575464 
L 290.15923 269.575464 
L 290.15923 88.068821 
L 281.983689 88.068821 
z
" style="fill:#cd5c5c;"/>
   </g>
   <g id="patch_27">
    <path clip-path="url(#p13615a91e1)" d="M 305.342378 269.575464 
L 313.517919 269.575464 
L 313.517919 51.19288 
L 305.342378 51.19288 
z
" style="fill:#cd5c5c;"/>
   </g>
   <g id="patch_28">
    <path clip-path="url(#p13615a91e1)" d="M 328.701067 269.575464 
L 336.876608 269.575464 
L 336.876608 220.397271 
L 328.701067 220.397271 
z
" style="fill:#cd5c5c;"/>
   </g>
   <g id="patch_29">
    <path clip-path="url(#p13615a91e1)" d="M 352.059756 269.575464 
L 360.235297 269.575464 
L 360.235297 259.112945 
L 352.059756 259.112945 
z
" style="fill:#cd5c5c;"/>
   </g>
   <g id="patch_30">
    <path clip-path="url(#p13615a91e1)" d="M 375.418445 269.575464 
L 383.593986 269.575464 
L 383.593986 262.349458 
L 375.418445 262.349458 
z
" style="fill:#cd5c5c;"/>
   </g>
   <g id="patch_31">
    <path clip-path="url(#p13615a91e1)" d="M 398.777134 269.575464 
L 406.952675 269.575464 
L 406.952675 264.317775 
L 398.777134 264.317775 
z
" style="fill:#cd5c5c;"/>
   </g>
   <g id="patch_32">
    <path clip-path="url(#p13615a91e1)" d="M 422.135823 269.575464 
L 430.311364 269.575464 
L 430.311364 184.625532 
L 422.135823 184.625532 
z
" style="fill:#cd5c5c;"/>
   </g>
   <g id="matplotlib.axis_1">
    <g id="xtick_1">
     <g id="line2d_1">
      <defs>
       <path d="M 0 0 
L 0 3.5 
" id="m6b23743574" style="stroke:#000000;stroke-width:0.8;"/>
      </defs>
      <g>
       <use style="stroke:#000000;stroke-width:0.8;" x="95.114177" xlink:href="#m6b23743574" y="269.575464"/>
      </g>
     </g>
     <g id="text_1">
      <!-- SET -->
      <defs>
       <path d="M 53.515625 70.515625 
L 53.515625 60.890625 
Q 47.90625 63.578125 42.921875 64.890625 
Q 37.9375 66.21875 33.296875 66.21875 
Q 25.25 66.21875 20.875 63.09375 
Q 16.5 59.96875 16.5 54.203125 
Q 16.5 49.359375 19.40625 46.890625 
Q 22.3125 44.4375 30.421875 42.921875 
L 36.375 41.703125 
Q 47.40625 39.59375 52.65625 34.296875 
Q 57.90625 29 57.90625 20.125 
Q 57.90625 9.515625 50.796875 4.046875 
Q 43.703125 -1.421875 29.984375 -1.421875 
Q 24.8125 -1.421875 18.96875 -0.25 
Q 13.140625 0.921875 6.890625 3.21875 
L 6.890625 13.375 
Q 12.890625 10.015625 18.65625 8.296875 
Q 24.421875 6.59375 29.984375 6.59375 
Q 38.421875 6.59375 43.015625 9.90625 
Q 47.609375 13.234375 47.609375 19.390625 
Q 47.609375 24.75 44.3125 27.78125 
Q 41.015625 30.8125 33.5 32.328125 
L 27.484375 33.5 
Q 16.453125 35.6875 11.515625 40.375 
Q 6.59375 45.0625 6.59375 53.421875 
Q 6.59375 63.09375 13.40625 68.65625 
Q 20.21875 74.21875 32.171875 74.21875 
Q 37.3125 74.21875 42.625 73.28125 
Q 47.953125 72.359375 53.515625 70.515625 
z
" id="DejaVuSans-83"/>
       <path d="M 9.8125 72.90625 
L 55.90625 72.90625 
L 55.90625 64.59375 
L 19.671875 64.59375 
L 19.671875 43.015625 
L 54.390625 43.015625 
L 54.390625 34.71875 
L 19.671875 34.71875 
L 19.671875 8.296875 
L 56.78125 8.296875 
L 56.78125 0 
L 9.8125 0 
z
" id="DejaVuSans-69"/>
       <path d="M -0.296875 72.90625 
L 61.375 72.90625 
L 61.375 64.59375 
L 35.5 64.59375 
L 35.5 0 
L 25.59375 0 
L 25.59375 64.59375 
L -0.296875 64.59375 
z
" id="DejaVuSans-84"/>
      </defs>
      <g transform="translate(77.814707 292.543404)rotate(-30)scale(0.1 -0.1)">
       <use xlink:href="#DejaVuSans-83"/>
       <use x="63.476562" xlink:href="#DejaVuSans-69"/>
       <use x="126.660156" xlink:href="#DejaVuSans-84"/>
      </g>
     </g>
    </g>
    <g id="xtick_2">
     <g id="line2d_2">
      <g>
       <use style="stroke:#000000;stroke-width:0.8;" x="118.472866" xlink:href="#m6b23743574" y="269.575464"/>
      </g>
     </g>
     <g id="text_2">
      <!-- GET -->
      <defs>
       <path d="M 59.515625 10.40625 
L 59.515625 29.984375 
L 43.40625 29.984375 
L 43.40625 38.09375 
L 69.28125 38.09375 
L 69.28125 6.78125 
Q 63.578125 2.734375 56.6875 0.65625 
Q 49.8125 -1.421875 42 -1.421875 
Q 24.90625 -1.421875 15.25 8.5625 
Q 5.609375 18.5625 5.609375 36.375 
Q 5.609375 54.25 15.25 64.234375 
Q 24.90625 74.21875 42 74.21875 
Q 49.125 74.21875 55.546875 72.453125 
Q 61.96875 70.703125 67.390625 67.28125 
L 67.390625 56.78125 
Q 61.921875 61.421875 55.765625 63.765625 
Q 49.609375 66.109375 42.828125 66.109375 
Q 29.4375 66.109375 22.71875 58.640625 
Q 16.015625 51.171875 16.015625 36.375 
Q 16.015625 21.625 22.71875 14.15625 
Q 29.4375 6.6875 42.828125 6.6875 
Q 48.046875 6.6875 52.140625 7.59375 
Q 56.25 8.5 59.515625 10.40625 
z
" id="DejaVuSans-71"/>
      </defs>
      <g transform="translate(99.96096 293.243404)rotate(-30)scale(0.1 -0.1)">
       <use xlink:href="#DejaVuSans-71"/>
       <use x="77.490234" xlink:href="#DejaVuSans-69"/>
       <use x="140.673828" xlink:href="#DejaVuSans-84"/>
      </g>
     </g>
    </g>
    <g id="xtick_3">
     <g id="line2d_3">
      <g>
       <use style="stroke:#000000;stroke-width:0.8;" x="141.831555" xlink:href="#m6b23743574" y="269.575464"/>
      </g>
     </g>
     <g id="text_3">
      <!-- INCR -->
      <defs>
       <path d="M 9.8125 72.90625 
L 19.671875 72.90625 
L 19.671875 0 
L 9.8125 0 
z
" id="DejaVuSans-73"/>
       <path d="M 9.8125 72.90625 
L 23.09375 72.90625 
L 55.421875 11.921875 
L 55.421875 72.90625 
L 64.984375 72.90625 
L 64.984375 0 
L 51.703125 0 
L 19.390625 60.984375 
L 19.390625 0 
L 9.8125 0 
z
" id="DejaVuSans-78"/>
       <path d="M 64.40625 67.28125 
L 64.40625 56.890625 
Q 59.421875 61.53125 53.78125 63.8125 
Q 48.140625 66.109375 41.796875 66.109375 
Q 29.296875 66.109375 22.65625 58.46875 
Q 16.015625 50.828125 16.015625 36.375 
Q 16.015625 21.96875 22.65625 14.328125 
Q 29.296875 6.6875 41.796875 6.6875 
Q 48.140625 6.6875 53.78125 8.984375 
Q 59.421875 11.28125 64.40625 15.921875 
L 64.40625 5.609375 
Q 59.234375 2.09375 53.4375 0.328125 
Q 47.65625 -1.421875 41.21875 -1.421875 
Q 24.65625 -1.421875 15.125 8.703125 
Q 5.609375 18.84375 5.609375 36.375 
Q 5.609375 53.953125 15.125 64.078125 
Q 24.65625 74.21875 41.21875 74.21875 
Q 47.75 74.21875 53.53125 72.484375 
Q 59.328125 70.75 64.40625 67.28125 
z
" id="DejaVuSans-67"/>
       <path d="M 44.390625 34.1875 
Q 47.5625 33.109375 50.5625 29.59375 
Q 53.5625 26.078125 56.59375 19.921875 
L 66.609375 0 
L 56 0 
L 46.6875 18.703125 
Q 43.0625 26.03125 39.671875 28.421875 
Q 36.28125 30.8125 30.421875 30.8125 
L 19.671875 30.8125 
L 19.671875 0 
L 9.8125 0 
L 9.8125 72.90625 
L 32.078125 72.90625 
Q 44.578125 72.90625 50.734375 67.671875 
Q 56.890625 62.453125 56.890625 51.90625 
Q 56.890625 45.015625 53.6875 40.46875 
Q 50.484375 35.9375 44.390625 34.1875 
z
M 19.671875 64.796875 
L 19.671875 38.921875 
L 32.078125 38.921875 
Q 39.203125 38.921875 42.84375 42.21875 
Q 46.484375 45.515625 46.484375 51.90625 
Q 46.484375 58.296875 42.84375 61.546875 
Q 39.203125 64.796875 32.078125 64.796875 
z
" id="DejaVuSans-82"/>
      </defs>
      <g transform="translate(119.693168 295.337154)rotate(-30)scale(0.1 -0.1)">
       <use xlink:href="#DejaVuSans-73"/>
       <use x="29.492188" xlink:href="#DejaVuSans-78"/>
       <use x="104.296875" xlink:href="#DejaVuSans-67"/>
       <use x="174.121094" xlink:href="#DejaVuSans-82"/>
      </g>
     </g>
    </g>
    <g id="xtick_4">
     <g id="line2d_4">
      <g>
       <use style="stroke:#000000;stroke-width:0.8;" x="165.190244" xlink:href="#m6b23743574" y="269.575464"/>
      </g>
     </g>
     <g id="text_4">
      <!-- LPUSH -->
      <defs>
       <path d="M 9.8125 72.90625 
L 19.671875 72.90625 
L 19.671875 8.296875 
L 55.171875 8.296875 
L 55.171875 0 
L 9.8125 0 
z
" id="DejaVuSans-76"/>
       <path d="M 19.671875 64.796875 
L 19.671875 37.40625 
L 32.078125 37.40625 
Q 38.96875 37.40625 42.71875 40.96875 
Q 46.484375 44.53125 46.484375 51.125 
Q 46.484375 57.671875 42.71875 61.234375 
Q 38.96875 64.796875 32.078125 64.796875 
z
M 9.8125 72.90625 
L 32.078125 72.90625 
Q 44.34375 72.90625 50.609375 67.359375 
Q 56.890625 61.8125 56.890625 51.125 
Q 56.890625 40.328125 50.609375 34.8125 
Q 44.34375 29.296875 32.078125 29.296875 
L 19.671875 29.296875 
L 19.671875 0 
L 9.8125 0 
z
" id="DejaVuSans-80"/>
       <path d="M 8.6875 72.90625 
L 18.609375 72.90625 
L 18.609375 28.609375 
Q 18.609375 16.890625 22.84375 11.734375 
Q 27.09375 6.59375 36.625 6.59375 
Q 46.09375 6.59375 50.34375 11.734375 
Q 54.59375 16.890625 54.59375 28.609375 
L 54.59375 72.90625 
L 64.5 72.90625 
L 64.5 27.390625 
Q 64.5 13.140625 57.4375 5.859375 
Q 50.390625 -1.421875 36.625 -1.421875 
Q 22.796875 -1.421875 15.734375 5.859375 
Q 8.6875 13.140625 8.6875 27.390625 
z
" id="DejaVuSans-85"/>
       <path d="M 9.8125 72.90625 
L 19.671875 72.90625 
L 19.671875 43.015625 
L 55.515625 43.015625 
L 55.515625 72.90625 
L 65.375 72.90625 
L 65.375 0 
L 55.515625 0 
L 55.515625 34.71875 
L 19.671875 34.71875 
L 19.671875 0 
L 9.8125 0 
z
" id="DejaVuSans-72"/>
      </defs>
      <g transform="translate(135.754239 299.550435)rotate(-30)scale(0.1 -0.1)">
       <use xlink:href="#DejaVuSans-76"/>
       <use x="55.712891" xlink:href="#DejaVuSans-80"/>
       <use x="116.015625" xlink:href="#DejaVuSans-85"/>
       <use x="189.208984" xlink:href="#DejaVuSans-83"/>
       <use x="252.685547" xlink:href="#DejaVuSans-72"/>
      </g>
     </g>
    </g>
    <g id="xtick_5">
     <g id="line2d_5">
      <g>
       <use style="stroke:#000000;stroke-width:0.8;" x="188.548933" xlink:href="#m6b23743574" y="269.575464"/>
      </g>
     </g>
     <g id="text_5">
      <!-- RPUSH -->
      <g transform="translate(157.92079 300.238716)rotate(-30)scale(0.1 -0.1)">
       <use xlink:href="#DejaVuSans-82"/>
       <use x="69.482422" xlink:href="#DejaVuSans-80"/>
       <use x="129.785156" xlink:href="#DejaVuSans-85"/>
       <use x="202.978516" xlink:href="#DejaVuSans-83"/>
       <use x="266.455078" xlink:href="#DejaVuSans-72"/>
      </g>
     </g>
    </g>
    <g id="xtick_6">
     <g id="line2d_6">
      <g>
       <use style="stroke:#000000;stroke-width:0.8;" x="211.907622" xlink:href="#m6b23743574" y="269.575464"/>
      </g>
     </g>
     <g id="text_6">
      <!-- LPOP -->
      <defs>
       <path d="M 39.40625 66.21875 
Q 28.65625 66.21875 22.328125 58.203125 
Q 16.015625 50.203125 16.015625 36.375 
Q 16.015625 22.609375 22.328125 14.59375 
Q 28.65625 6.59375 39.40625 6.59375 
Q 50.140625 6.59375 56.421875 14.59375 
Q 62.703125 22.609375 62.703125 36.375 
Q 62.703125 50.203125 56.421875 58.203125 
Q 50.140625 66.21875 39.40625 66.21875 
z
M 39.40625 74.21875 
Q 54.734375 74.21875 63.90625 63.9375 
Q 73.09375 53.65625 73.09375 36.375 
Q 73.09375 19.140625 63.90625 8.859375 
Q 54.734375 -1.421875 39.40625 -1.421875 
Q 24.03125 -1.421875 14.8125 8.828125 
Q 5.609375 19.09375 5.609375 36.375 
Q 5.609375 53.65625 14.8125 63.9375 
Q 24.03125 74.21875 39.40625 74.21875 
z
" id="DejaVuSans-79"/>
      </defs>
      <g transform="translate(188.781424 295.907466)rotate(-30)scale(0.1 -0.1)">
       <use xlink:href="#DejaVuSans-76"/>
       <use x="55.712891" xlink:href="#DejaVuSans-80"/>
       <use x="116.015625" xlink:href="#DejaVuSans-79"/>
       <use x="194.726562" xlink:href="#DejaVuSans-80"/>
      </g>
     </g>
    </g>
    <g id="xtick_7">
     <g id="line2d_7">
      <g>
       <use style="stroke:#000000;stroke-width:0.8;" x="235.266311" xlink:href="#m6b23743574" y="269.575464"/>
      </g>
     </g>
     <g id="text_7">
      <!-- RPOP -->
      <g transform="translate(210.947975 296.595748)rotate(-30)scale(0.1 -0.1)">
       <use xlink:href="#DejaVuSans-82"/>
       <use x="69.482422" xlink:href="#DejaVuSans-80"/>
       <use x="129.785156" xlink:href="#DejaVuSans-79"/>
       <use x="208.496094" xlink:href="#DejaVuSans-80"/>
      </g>
     </g>
    </g>
    <g id="xtick_8">
     <g id="line2d_8">
      <g>
       <use style="stroke:#000000;stroke-width:0.8;" x="258.625" xlink:href="#m6b23743574" y="269.575464"/>
      </g>
     </g>
     <g id="text_8">
      <!-- SADD -->
      <defs>
       <path d="M 34.1875 63.1875 
L 20.796875 26.90625 
L 47.609375 26.90625 
z
M 28.609375 72.90625 
L 39.796875 72.90625 
L 67.578125 0 
L 57.328125 0 
L 50.6875 18.703125 
L 17.828125 18.703125 
L 11.1875 0 
L 0.78125 0 
z
" id="DejaVuSans-65"/>
       <path d="M 19.671875 64.796875 
L 19.671875 8.109375 
L 31.59375 8.109375 
Q 46.6875 8.109375 53.6875 14.9375 
Q 60.6875 21.78125 60.6875 36.53125 
Q 60.6875 51.171875 53.6875 57.984375 
Q 46.6875 64.796875 31.59375 64.796875 
z
M 9.8125 72.90625 
L 30.078125 72.90625 
Q 51.265625 72.90625 61.171875 64.09375 
Q 71.09375 55.28125 71.09375 36.53125 
Q 71.09375 17.671875 61.125 8.828125 
Q 51.171875 0 30.078125 0 
L 9.8125 0 
z
" id="DejaVuSans-68"/>
      </defs>
      <g transform="translate(232.824949 297.451216)rotate(-30)scale(0.1 -0.1)">
       <use xlink:href="#DejaVuSans-83"/>
       <use x="63.492188" xlink:href="#DejaVuSans-65"/>
       <use x="131.900391" xlink:href="#DejaVuSans-68"/>
       <use x="208.902344" xlink:href="#DejaVuSans-68"/>
      </g>
     </g>
    </g>
    <g id="xtick_9">
     <g id="line2d_9">
      <g>
       <use style="stroke:#000000;stroke-width:0.8;" x="281.983689" xlink:href="#m6b23743574" y="269.575464"/>
      </g>
     </g>
     <g id="text_9">
      <!-- HSET -->
      <g transform="translate(258.171437 296.30356)rotate(-30)scale(0.1 -0.1)">
       <use xlink:href="#DejaVuSans-72"/>
       <use x="75.195312" xlink:href="#DejaVuSans-83"/>
       <use x="138.671875" xlink:href="#DejaVuSans-69"/>
       <use x="201.855469" xlink:href="#DejaVuSans-84"/>
      </g>
     </g>
    </g>
    <g id="xtick_10">
     <g id="line2d_10">
      <g>
       <use style="stroke:#000000;stroke-width:0.8;" x="305.342378" xlink:href="#m6b23743574" y="269.575464"/>
      </g>
     </g>
     <g id="text_10">
      <!-- SPOP -->
      <g transform="translate(281.543657 296.295748)rotate(-30)scale(0.1 -0.1)">
       <use xlink:href="#DejaVuSans-83"/>
       <use x="63.476562" xlink:href="#DejaVuSans-80"/>
       <use x="123.779297" xlink:href="#DejaVuSans-79"/>
       <use x="202.490234" xlink:href="#DejaVuSans-80"/>
      </g>
     </g>
    </g>
    <g id="xtick_11">
     <g id="line2d_11">
      <g>
       <use style="stroke:#000000;stroke-width:0.8;" x="328.701067" xlink:href="#m6b23743574" y="269.575464"/>
      </g>
     </g>
     <g id="text_11">
      <!-- LRANGE (100) -->
      <defs>
       <path id="DejaVuSans-32"/>
       <path d="M 31 75.875 
Q 24.46875 64.65625 21.28125 53.65625 
Q 18.109375 42.671875 18.109375 31.390625 
Q 18.109375 20.125 21.3125 9.0625 
Q 24.515625 -2 31 -13.1875 
L 23.1875 -13.1875 
Q 15.875 -1.703125 12.234375 9.375 
Q 8.59375 20.453125 8.59375 31.390625 
Q 8.59375 42.28125 12.203125 53.3125 
Q 15.828125 64.359375 23.1875 75.875 
z
" id="DejaVuSans-40"/>
       <path d="M 12.40625 8.296875 
L 28.515625 8.296875 
L 28.515625 63.921875 
L 10.984375 60.40625 
L 10.984375 69.390625 
L 28.421875 72.90625 
L 38.28125 72.90625 
L 38.28125 8.296875 
L 54.390625 8.296875 
L 54.390625 0 
L 12.40625 0 
z
" id="DejaVuSans-49"/>
       <path d="M 31.78125 66.40625 
Q 24.171875 66.40625 20.328125 58.90625 
Q 16.5 51.421875 16.5 36.375 
Q 16.5 21.390625 20.328125 13.890625 
Q 24.171875 6.390625 31.78125 6.390625 
Q 39.453125 6.390625 43.28125 13.890625 
Q 47.125 21.390625 47.125 36.375 
Q 47.125 51.421875 43.28125 58.90625 
Q 39.453125 66.40625 31.78125 66.40625 
z
M 31.78125 74.21875 
Q 44.046875 74.21875 50.515625 64.515625 
Q 56.984375 54.828125 56.984375 36.375 
Q 56.984375 17.96875 50.515625 8.265625 
Q 44.046875 -1.421875 31.78125 -1.421875 
Q 19.53125 -1.421875 13.0625 8.265625 
Q 6.59375 17.96875 6.59375 36.375 
Q 6.59375 54.828125 13.0625 64.515625 
Q 19.53125 74.21875 31.78125 74.21875 
z
" id="DejaVuSans-48"/>
       <path d="M 8.015625 75.875 
L 15.828125 75.875 
Q 23.140625 64.359375 26.78125 53.3125 
Q 30.421875 42.28125 30.421875 31.390625 
Q 30.421875 20.453125 26.78125 9.375 
Q 23.140625 -1.703125 15.828125 -13.1875 
L 8.015625 -13.1875 
Q 14.5 -2 17.703125 9.0625 
Q 20.90625 20.125 20.90625 31.390625 
Q 20.90625 42.671875 17.703125 53.65625 
Q 14.5 64.65625 8.015625 75.875 
z
" id="DejaVuSans-41"/>
      </defs>
      <g transform="translate(266.197776 318.641841)rotate(-30)scale(0.1 -0.1)">
       <use xlink:href="#DejaVuSans-76"/>
       <use x="55.712891" xlink:href="#DejaVuSans-82"/>
       <use x="125.132812" xlink:href="#DejaVuSans-65"/>
       <use x="193.541016" xlink:href="#DejaVuSans-78"/>
       <use x="268.345703" xlink:href="#DejaVuSans-71"/>
       <use x="345.835938" xlink:href="#DejaVuSans-69"/>
       <use x="409.019531" xlink:href="#DejaVuSans-32"/>
       <use x="440.806641" xlink:href="#DejaVuSans-40"/>
       <use x="479.820312" xlink:href="#DejaVuSans-49"/>
       <use x="543.443359" xlink:href="#DejaVuSans-48"/>
       <use x="607.066406" xlink:href="#DejaVuSans-48"/>
       <use x="670.689453" xlink:href="#DejaVuSans-41"/>
      </g>
     </g>
    </g>
    <g id="xtick_12">
     <g id="line2d_12">
      <g>
       <use style="stroke:#000000;stroke-width:0.8;" x="352.059756" xlink:href="#m6b23743574" y="269.575464"/>
      </g>
     </g>
     <g id="text_12">
      <!-- LRANGE (300) -->
      <defs>
       <path d="M 40.578125 39.3125 
Q 47.65625 37.796875 51.625 33 
Q 55.609375 28.21875 55.609375 21.1875 
Q 55.609375 10.40625 48.1875 4.484375 
Q 40.765625 -1.421875 27.09375 -1.421875 
Q 22.515625 -1.421875 17.65625 -0.515625 
Q 12.796875 0.390625 7.625 2.203125 
L 7.625 11.71875 
Q 11.71875 9.328125 16.59375 8.109375 
Q 21.484375 6.890625 26.8125 6.890625 
Q 36.078125 6.890625 40.9375 10.546875 
Q 45.796875 14.203125 45.796875 21.1875 
Q 45.796875 27.640625 41.28125 31.265625 
Q 36.765625 34.90625 28.71875 34.90625 
L 20.21875 34.90625 
L 20.21875 43.015625 
L 29.109375 43.015625 
Q 36.375 43.015625 40.234375 45.921875 
Q 44.09375 48.828125 44.09375 54.296875 
Q 44.09375 59.90625 40.109375 62.90625 
Q 36.140625 65.921875 28.71875 65.921875 
Q 24.65625 65.921875 20.015625 65.03125 
Q 15.375 64.15625 9.8125 62.3125 
L 9.8125 71.09375 
Q 15.4375 72.65625 20.34375 73.4375 
Q 25.25 74.21875 29.59375 74.21875 
Q 40.828125 74.21875 47.359375 69.109375 
Q 53.90625 64.015625 53.90625 55.328125 
Q 53.90625 49.265625 50.4375 45.09375 
Q 46.96875 40.921875 40.578125 39.3125 
z
" id="DejaVuSans-51"/>
      </defs>
      <g transform="translate(289.556465 318.641841)rotate(-30)scale(0.1 -0.1)">
       <use xlink:href="#DejaVuSans-76"/>
       <use x="55.712891" xlink:href="#DejaVuSans-82"/>
       <use x="125.132812" xlink:href="#DejaVuSans-65"/>
       <use x="193.541016" xlink:href="#DejaVuSans-78"/>
       <use x="268.345703" xlink:href="#DejaVuSans-71"/>
       <use x="345.835938" xlink:href="#DejaVuSans-69"/>
       <use x="409.019531" xlink:href="#DejaVuSans-32"/>
       <use x="440.806641" xlink:href="#DejaVuSans-40"/>
       <use x="479.820312" xlink:href="#DejaVuSans-51"/>
       <use x="543.443359" xlink:href="#DejaVuSans-48"/>
       <use x="607.066406" xlink:href="#DejaVuSans-48"/>
       <use x="670.689453" xlink:href="#DejaVuSans-41"/>
      </g>
     </g>
    </g>
    <g id="xtick_13">
     <g id="line2d_13">
      <g>
       <use style="stroke:#000000;stroke-width:0.8;" x="375.418445" xlink:href="#m6b23743574" y="269.575464"/>
      </g>
     </g>
     <g id="text_13">
      <!-- LRANGE (500) -->
      <defs>
       <path d="M 10.796875 72.90625 
L 49.515625 72.90625 
L 49.515625 64.59375 
L 19.828125 64.59375 
L 19.828125 46.734375 
Q 21.96875 47.46875 24.109375 47.828125 
Q 26.265625 48.1875 28.421875 48.1875 
Q 40.625 48.1875 47.75 41.5 
Q 54.890625 34.8125 54.890625 23.390625 
Q 54.890625 11.625 47.5625 5.09375 
Q 40.234375 -1.421875 26.90625 -1.421875 
Q 22.3125 -1.421875 17.546875 -0.640625 
Q 12.796875 0.140625 7.71875 1.703125 
L 7.71875 11.625 
Q 12.109375 9.234375 16.796875 8.0625 
Q 21.484375 6.890625 26.703125 6.890625 
Q 35.15625 6.890625 40.078125 11.328125 
Q 45.015625 15.765625 45.015625 23.390625 
Q 45.015625 31 40.078125 35.4375 
Q 35.15625 39.890625 26.703125 39.890625 
Q 22.75 39.890625 18.8125 39.015625 
Q 14.890625 38.140625 10.796875 36.28125 
z
" id="DejaVuSans-53"/>
      </defs>
      <g transform="translate(312.915154 318.641841)rotate(-30)scale(0.1 -0.1)">
       <use xlink:href="#DejaVuSans-76"/>
       <use x="55.712891" xlink:href="#DejaVuSans-82"/>
       <use x="125.132812" xlink:href="#DejaVuSans-65"/>
       <use x="193.541016" xlink:href="#DejaVuSans-78"/>
       <use x="268.345703" xlink:href="#DejaVuSans-71"/>
       <use x="345.835938" xlink:href="#DejaVuSans-69"/>
       <use x="409.019531" xlink:href="#DejaVuSans-32"/>
       <use x="440.806641" xlink:href="#DejaVuSans-40"/>
       <use x="479.820312" xlink:href="#DejaVuSans-53"/>
       <use x="543.443359" xlink:href="#DejaVuSans-48"/>
       <use x="607.066406" xlink:href="#DejaVuSans-48"/>
       <use x="670.689453" xlink:href="#DejaVuSans-41"/>
      </g>
     </g>
    </g>
    <g id="xtick_14">
     <g id="line2d_14">
      <g>
       <use style="stroke:#000000;stroke-width:0.8;" x="398.777134" xlink:href="#m6b23743574" y="269.575464"/>
      </g>
     </g>
     <g id="text_14">
      <!-- LRANGE (600) -->
      <defs>
       <path d="M 33.015625 40.375 
Q 26.375 40.375 22.484375 35.828125 
Q 18.609375 31.296875 18.609375 23.390625 
Q 18.609375 15.53125 22.484375 10.953125 
Q 26.375 6.390625 33.015625 6.390625 
Q 39.65625 6.390625 43.53125 10.953125 
Q 47.40625 15.53125 47.40625 23.390625 
Q 47.40625 31.296875 43.53125 35.828125 
Q 39.65625 40.375 33.015625 40.375 
z
M 52.59375 71.296875 
L 52.59375 62.3125 
Q 48.875 64.0625 45.09375 64.984375 
Q 41.3125 65.921875 37.59375 65.921875 
Q 27.828125 65.921875 22.671875 59.328125 
Q 17.53125 52.734375 16.796875 39.40625 
Q 19.671875 43.65625 24.015625 45.921875 
Q 28.375 48.1875 33.59375 48.1875 
Q 44.578125 48.1875 50.953125 41.515625 
Q 57.328125 34.859375 57.328125 23.390625 
Q 57.328125 12.15625 50.6875 5.359375 
Q 44.046875 -1.421875 33.015625 -1.421875 
Q 20.359375 -1.421875 13.671875 8.265625 
Q 6.984375 17.96875 6.984375 36.375 
Q 6.984375 53.65625 15.1875 63.9375 
Q 23.390625 74.21875 37.203125 74.21875 
Q 40.921875 74.21875 44.703125 73.484375 
Q 48.484375 72.75 52.59375 71.296875 
z
" id="DejaVuSans-54"/>
      </defs>
      <g transform="translate(336.273843 318.641841)rotate(-30)scale(0.1 -0.1)">
       <use xlink:href="#DejaVuSans-76"/>
       <use x="55.712891" xlink:href="#DejaVuSans-82"/>
       <use x="125.132812" xlink:href="#DejaVuSans-65"/>
       <use x="193.541016" xlink:href="#DejaVuSans-78"/>
       <use x="268.345703" xlink:href="#DejaVuSans-71"/>
       <use x="345.835938" xlink:href="#DejaVuSans-69"/>
       <use x="409.019531" xlink:href="#DejaVuSans-32"/>
       <use x="440.806641" xlink:href="#DejaVuSans-40"/>
       <use x="479.820312" xlink:href="#DejaVuSans-54"/>
       <use x="543.443359" xlink:href="#DejaVuSans-48"/>
       <use x="607.066406" xlink:href="#DejaVuSans-48"/>
       <use x="670.689453" xlink:href="#DejaVuSans-41"/>
      </g>
     </g>
    </g>
    <g id="xtick_15">
     <g id="line2d_15">
      <g>
       <use style="stroke:#000000;stroke-width:0.8;" x="422.135823" xlink:href="#m6b23743574" y="269.575464"/>
      </g>
     </g>
     <g id="text_15">
      <!-- MSET -->
      <defs>
       <path d="M 9.8125 72.90625 
L 24.515625 72.90625 
L 43.109375 23.296875 
L 61.8125 72.90625 
L 76.515625 72.90625 
L 76.515625 0 
L 66.890625 0 
L 66.890625 64.015625 
L 48.09375 14.015625 
L 38.1875 14.015625 
L 19.390625 64.015625 
L 19.390625 0 
L 9.8125 0 
z
" id="DejaVuSans-77"/>
      </defs>
      <g transform="translate(397.364176 296.857466)rotate(-30)scale(0.1 -0.1)">
       <use xlink:href="#DejaVuSans-77"/>
       <use x="86.279297" xlink:href="#DejaVuSans-83"/>
       <use x="149.755859" xlink:href="#DejaVuSans-69"/>
       <use x="212.939453" xlink:href="#DejaVuSans-84"/>
      </g>
     </g>
    </g>
    <g id="text_16">
     <!-- Benchmarks -->
     <defs>
      <path d="M 19.671875 34.8125 
L 19.671875 8.109375 
L 35.5 8.109375 
Q 43.453125 8.109375 47.28125 11.40625 
Q 51.125 14.703125 51.125 21.484375 
Q 51.125 28.328125 47.28125 31.5625 
Q 43.453125 34.8125 35.5 34.8125 
z
M 19.671875 64.796875 
L 19.671875 42.828125 
L 34.28125 42.828125 
Q 41.5 42.828125 45.03125 45.53125 
Q 48.578125 48.25 48.578125 53.8125 
Q 48.578125 59.328125 45.03125 62.0625 
Q 41.5 64.796875 34.28125 64.796875 
z
M 9.8125 72.90625 
L 35.015625 72.90625 
Q 46.296875 72.90625 52.390625 68.21875 
Q 58.5 63.53125 58.5 54.890625 
Q 58.5 48.1875 55.375 44.234375 
Q 52.25 40.28125 46.1875 39.3125 
Q 53.46875 37.75 57.5 32.78125 
Q 61.53125 27.828125 61.53125 20.40625 
Q 61.53125 10.640625 54.890625 5.3125 
Q 48.25 0 35.984375 0 
L 9.8125 0 
z
" id="DejaVuSans-66"/>
      <path d="M 56.203125 29.59375 
L 56.203125 25.203125 
L 14.890625 25.203125 
Q 15.484375 15.921875 20.484375 11.0625 
Q 25.484375 6.203125 34.421875 6.203125 
Q 39.59375 6.203125 44.453125 7.46875 
Q 49.3125 8.734375 54.109375 11.28125 
L 54.109375 2.78125 
Q 49.265625 0.734375 44.1875 -0.34375 
Q 39.109375 -1.421875 33.890625 -1.421875 
Q 20.796875 -1.421875 13.15625 6.1875 
Q 5.515625 13.8125 5.515625 26.8125 
Q 5.515625 40.234375 12.765625 48.109375 
Q 20.015625 56 32.328125 56 
Q 43.359375 56 49.78125 48.890625 
Q 56.203125 41.796875 56.203125 29.59375 
z
M 47.21875 32.234375 
Q 47.125 39.59375 43.09375 43.984375 
Q 39.0625 48.390625 32.421875 48.390625 
Q 24.90625 48.390625 20.390625 44.140625 
Q 15.875 39.890625 15.1875 32.171875 
z
" id="DejaVuSans-101"/>
      <path d="M 54.890625 33.015625 
L 54.890625 0 
L 45.90625 0 
L 45.90625 32.71875 
Q 45.90625 40.484375 42.875 44.328125 
Q 39.84375 48.1875 33.796875 48.1875 
Q 26.515625 48.1875 22.3125 43.546875 
Q 18.109375 38.921875 18.109375 30.90625 
L 18.109375 0 
L 9.078125 0 
L 9.078125 54.6875 
L 18.109375 54.6875 
L 18.109375 46.1875 
Q 21.34375 51.125 25.703125 53.5625 
Q 30.078125 56 35.796875 56 
Q 45.21875 56 50.046875 50.171875 
Q 54.890625 44.34375 54.890625 33.015625 
z
" id="DejaVuSans-110"/>
      <path d="M 48.78125 52.59375 
L 48.78125 44.1875 
Q 44.96875 46.296875 41.140625 47.34375 
Q 37.3125 48.390625 33.40625 48.390625 
Q 24.65625 48.390625 19.8125 42.84375 
Q 14.984375 37.3125 14.984375 27.296875 
Q 14.984375 17.28125 19.8125 11.734375 
Q 24.65625 6.203125 33.40625 6.203125 
Q 37.3125 6.203125 41.140625 7.25 
Q 44.96875 8.296875 48.78125 10.40625 
L 48.78125 2.09375 
Q 45.015625 0.34375 40.984375 -0.53125 
Q 36.96875 -1.421875 32.421875 -1.421875 
Q 20.0625 -1.421875 12.78125 6.34375 
Q 5.515625 14.109375 5.515625 27.296875 
Q 5.515625 40.671875 12.859375 48.328125 
Q 20.21875 56 33.015625 56 
Q 37.15625 56 41.109375 55.140625 
Q 45.0625 54.296875 48.78125 52.59375 
z
" id="DejaVuSans-99"/>
      <path d="M 54.890625 33.015625 
L 54.890625 0 
L 45.90625 0 
L 45.90625 32.71875 
Q 45.90625 40.484375 42.875 44.328125 
Q 39.84375 48.1875 33.796875 48.1875 
Q 26.515625 48.1875 22.3125 43.546875 
Q 18.109375 38.921875 18.109375 30.90625 
L 18.109375 0 
L 9.078125 0 
L 9.078125 75.984375 
L 18.109375 75.984375 
L 18.109375 46.1875 
Q 21.34375 51.125 25.703125 53.5625 
Q 30.078125 56 35.796875 56 
Q 45.21875 56 50.046875 50.171875 
Q 54.890625 44.34375 54.890625 33.015625 
z
" id="DejaVuSans-104"/>
      <path d="M 52 44.1875 
Q 55.375 50.25 60.0625 53.125 
Q 64.75 56 71.09375 56 
Q 79.640625 56 84.28125 50.015625 
Q 88.921875 44.046875 88.921875 33.015625 
L 88.921875 0 
L 79.890625 0 
L 79.890625 32.71875 
Q 79.890625 40.578125 77.09375 44.375 
Q 74.3125 48.1875 68.609375 48.1875 
Q 61.625 48.1875 57.5625 43.546875 
Q 53.515625 38.921875 53.515625 30.90625 
L 53.515625 0 
L 44.484375 0 
L 44.484375 32.71875 
Q 44.484375 40.625 41.703125 44.40625 
Q 38.921875 48.1875 33.109375 48.1875 
Q 26.21875 48.1875 22.15625 43.53125 
Q 18.109375 38.875 18.109375 30.90625 
L 18.109375 0 
L 9.078125 0 
L 9.078125 54.6875 
L 18.109375 54.6875 
L 18.109375 46.1875 
Q 21.1875 51.21875 25.484375 53.609375 
Q 29.78125 56 35.6875 56 
Q 41.65625 56 45.828125 52.96875 
Q 50 49.953125 52 44.1875 
z
" id="DejaVuSans-109"/>
      <path d="M 34.28125 27.484375 
Q 23.390625 27.484375 19.1875 25 
Q 14.984375 22.515625 14.984375 16.5 
Q 14.984375 11.71875 18.140625 8.90625 
Q 21.296875 6.109375 26.703125 6.109375 
Q 34.1875 6.109375 38.703125 11.40625 
Q 43.21875 16.703125 43.21875 25.484375 
L 43.21875 27.484375 
z
M 52.203125 31.203125 
L 52.203125 0 
L 43.21875 0 
L 43.21875 8.296875 
Q 40.140625 3.328125 35.546875 0.953125 
Q 30.953125 -1.421875 24.3125 -1.421875 
Q 15.921875 -1.421875 10.953125 3.296875 
Q 6 8.015625 6 15.921875 
Q 6 25.140625 12.171875 29.828125 
Q 18.359375 34.515625 30.609375 34.515625 
L 43.21875 34.515625 
L 43.21875 35.40625 
Q 43.21875 41.609375 39.140625 45 
Q 35.0625 48.390625 27.6875 48.390625 
Q 23 48.390625 18.546875 47.265625 
Q 14.109375 46.140625 10.015625 43.890625 
L 10.015625 52.203125 
Q 14.9375 54.109375 19.578125 55.046875 
Q 24.21875 56 28.609375 56 
Q 40.484375 56 46.34375 49.84375 
Q 52.203125 43.703125 52.203125 31.203125 
z
" id="DejaVuSans-97"/>
      <path d="M 41.109375 46.296875 
Q 39.59375 47.171875 37.8125 47.578125 
Q 36.03125 48 33.890625 48 
Q 26.265625 48 22.1875 43.046875 
Q 18.109375 38.09375 18.109375 28.8125 
L 18.109375 0 
L 9.078125 0 
L 9.078125 54.6875 
L 18.109375 54.6875 
L 18.109375 46.1875 
Q 20.953125 51.171875 25.484375 53.578125 
Q 30.03125 56 36.53125 56 
Q 37.453125 56 38.578125 55.875 
Q 39.703125 55.765625 41.0625 55.515625 
z
" id="DejaVuSans-114"/>
      <path d="M 9.078125 75.984375 
L 18.109375 75.984375 
L 18.109375 31.109375 
L 44.921875 54.6875 
L 56.390625 54.6875 
L 27.390625 29.109375 
L 57.625 0 
L 45.90625 0 
L 18.109375 26.703125 
L 18.109375 0 
L 9.078125 0 
z
" id="DejaVuSans-107"/>
      <path d="M 44.28125 53.078125 
L 44.28125 44.578125 
Q 40.484375 46.53125 36.375 47.5 
Q 32.28125 48.484375 27.875 48.484375 
Q 21.1875 48.484375 17.84375 46.4375 
Q 14.5 44.390625 14.5 40.28125 
Q 14.5 37.15625 16.890625 35.375 
Q 19.28125 33.59375 26.515625 31.984375 
L 29.59375 31.296875 
Q 39.15625 29.25 43.1875 25.515625 
Q 47.21875 21.78125 47.21875 15.09375 
Q 47.21875 7.46875 41.1875 3.015625 
Q 35.15625 -1.421875 24.609375 -1.421875 
Q 20.21875 -1.421875 15.453125 -0.5625 
Q 10.6875 0.296875 5.421875 2 
L 5.421875 11.28125 
Q 10.40625 8.6875 15.234375 7.390625 
Q 20.0625 6.109375 24.8125 6.109375 
Q 31.15625 6.109375 34.5625 8.28125 
Q 37.984375 10.453125 37.984375 14.40625 
Q 37.984375 18.0625 35.515625 20.015625 
Q 33.0625 21.96875 24.703125 23.78125 
L 21.578125 24.515625 
Q 13.234375 26.265625 9.515625 29.90625 
Q 5.8125 33.546875 5.8125 39.890625 
Q 5.8125 47.609375 11.28125 51.796875 
Q 16.75 56 26.8125 56 
Q 31.78125 56 36.171875 55.265625 
Q 40.578125 54.546875 44.28125 53.078125 
z
" id="DejaVuSans-115"/>
     </defs>
     <g transform="translate(227.541406 332.041341)scale(0.1 -0.1)">
      <use xlink:href="#DejaVuSans-66"/>
      <use x="68.603516" xlink:href="#DejaVuSans-101"/>
      <use x="130.126953" xlink:href="#DejaVuSans-110"/>
      <use x="193.505859" xlink:href="#DejaVuSans-99"/>
      <use x="248.486328" xlink:href="#DejaVuSans-104"/>
      <use x="311.865234" xlink:href="#DejaVuSans-109"/>
      <use x="409.277344" xlink:href="#DejaVuSans-97"/>
      <use x="470.556641" xlink:href="#DejaVuSans-114"/>
      <use x="511.669922" xlink:href="#DejaVuSans-107"/>
      <use x="569.580078" xlink:href="#DejaVuSans-115"/>
     </g>
    </g>
   </g>
   <g id="matplotlib.axis_2">
    <g id="ytick_1">
     <g id="line2d_16">
      <defs>
       <path d="M 0 0 
L -3.5 0 
" id="mea23ae38b8" style="stroke:#000000;stroke-width:0.8;"/>
      </defs>
      <g>
       <use style="stroke:#000000;stroke-width:0.8;" x="69.77" xlink:href="#mea23ae38b8" y="269.575464"/>
      </g>
     </g>
     <g id="text_17">
      <!-- 0 -->
      <g transform="translate(56.4075 273.374683)scale(0.1 -0.1)">
       <use xlink:href="#DejaVuSans-48"/>
      </g>
     </g>
    </g>
    <g id="ytick_2">
     <g id="line2d_17">
      <g>
       <use style="stroke:#000000;stroke-width:0.8;" x="69.77" xlink:href="#mea23ae38b8" y="220.251013"/>
      </g>
     </g>
     <g id="text_18">
      <!-- 100000 -->
      <g transform="translate(24.595 224.050231)scale(0.1 -0.1)">
       <use xlink:href="#DejaVuSans-49"/>
       <use x="63.623047" xlink:href="#DejaVuSans-48"/>
       <use x="127.246094" xlink:href="#DejaVuSans-48"/>
       <use x="190.869141" xlink:href="#DejaVuSans-48"/>
       <use x="254.492188" xlink:href="#DejaVuSans-48"/>
       <use x="318.115234" xlink:href="#DejaVuSans-48"/>
      </g>
     </g>
    </g>
    <g id="ytick_3">
     <g id="line2d_18">
      <g>
       <use style="stroke:#000000;stroke-width:0.8;" x="69.77" xlink:href="#mea23ae38b8" y="170.926561"/>
      </g>
     </g>
     <g id="text_19">
      <!-- 200000 -->
      <defs>
       <path d="M 19.1875 8.296875 
L 53.609375 8.296875 
L 53.609375 0 
L 7.328125 0 
L 7.328125 8.296875 
Q 12.9375 14.109375 22.625 23.890625 
Q 32.328125 33.6875 34.8125 36.53125 
Q 39.546875 41.84375 41.421875 45.53125 
Q 43.3125 49.21875 43.3125 52.78125 
Q 43.3125 58.59375 39.234375 62.25 
Q 35.15625 65.921875 28.609375 65.921875 
Q 23.96875 65.921875 18.8125 64.3125 
Q 13.671875 62.703125 7.8125 59.421875 
L 7.8125 69.390625 
Q 13.765625 71.78125 18.9375 73 
Q 24.125 74.21875 28.421875 74.21875 
Q 39.75 74.21875 46.484375 68.546875 
Q 53.21875 62.890625 53.21875 53.421875 
Q 53.21875 48.921875 51.53125 44.890625 
Q 49.859375 40.875 45.40625 35.40625 
Q 44.1875 33.984375 37.640625 27.21875 
Q 31.109375 20.453125 19.1875 8.296875 
z
" id="DejaVuSans-50"/>
      </defs>
      <g transform="translate(24.595 174.72578)scale(0.1 -0.1)">
       <use xlink:href="#DejaVuSans-50"/>
       <use x="63.623047" xlink:href="#DejaVuSans-48"/>
       <use x="127.246094" xlink:href="#DejaVuSans-48"/>
       <use x="190.869141" xlink:href="#DejaVuSans-48"/>
       <use x="254.492188" xlink:href="#DejaVuSans-48"/>
       <use x="318.115234" xlink:href="#DejaVuSans-48"/>
      </g>
     </g>
    </g>
    <g id="ytick_4">
     <g id="line2d_19">
      <g>
       <use style="stroke:#000000;stroke-width:0.8;" x="69.77" xlink:href="#mea23ae38b8" y="121.60211"/>
      </g>
     </g>
     <g id="text_20">
      <!-- 300000 -->
      <g transform="translate(24.595 125.401329)scale(0.1 -0.1)">
       <use xlink:href="#DejaVuSans-51"/>
       <use x="63.623047" xlink:href="#DejaVuSans-48"/>
       <use x="127.246094" xlink:href="#DejaVuSans-48"/>
       <use x="190.869141" xlink:href="#DejaVuSans-48"/>
       <use x="254.492188" xlink:href="#DejaVuSans-48"/>
       <use x="318.115234" xlink:href="#DejaVuSans-48"/>
      </g>
     </g>
    </g>
    <g id="ytick_5">
     <g id="line2d_20">
      <g>
       <use style="stroke:#000000;stroke-width:0.8;" x="69.77" xlink:href="#mea23ae38b8" y="72.277659"/>
      </g>
     </g>
     <g id="text_21">
      <!-- 400000 -->
      <defs>
       <path d="M 37.796875 64.3125 
L 12.890625 25.390625 
L 37.796875 25.390625 
z
M 35.203125 72.90625 
L 47.609375 72.90625 
L 47.609375 25.390625 
L 58.015625 25.390625 
L 58.015625 17.1875 
L 47.609375 17.1875 
L 47.609375 0 
L 37.796875 0 
L 37.796875 17.1875 
L 4.890625 17.1875 
L 4.890625 26.703125 
z
" id="DejaVuSans-52"/>
      </defs>
      <g transform="translate(24.595 76.076878)scale(0.1 -0.1)">
       <use xlink:href="#DejaVuSans-52"/>
       <use x="63.623047" xlink:href="#DejaVuSans-48"/>
       <use x="127.246094" xlink:href="#DejaVuSans-48"/>
       <use x="190.869141" xlink:href="#DejaVuSans-48"/>
       <use x="254.492188" xlink:href="#DejaVuSans-48"/>
       <use x="318.115234" xlink:href="#DejaVuSans-48"/>
      </g>
     </g>
    </g>
    <g id="text_22">
     <!-- Requests per second -->
     <defs>
      <path d="M 14.796875 27.296875 
Q 14.796875 17.390625 18.875 11.75 
Q 22.953125 6.109375 30.078125 6.109375 
Q 37.203125 6.109375 41.296875 11.75 
Q 45.40625 17.390625 45.40625 27.296875 
Q 45.40625 37.203125 41.296875 42.84375 
Q 37.203125 48.484375 30.078125 48.484375 
Q 22.953125 48.484375 18.875 42.84375 
Q 14.796875 37.203125 14.796875 27.296875 
z
M 45.40625 8.203125 
Q 42.578125 3.328125 38.25 0.953125 
Q 33.9375 -1.421875 27.875 -1.421875 
Q 17.96875 -1.421875 11.734375 6.484375 
Q 5.515625 14.40625 5.515625 27.296875 
Q 5.515625 40.1875 11.734375 48.09375 
Q 17.96875 56 27.875 56 
Q 33.9375 56 38.25 53.625 
Q 42.578125 51.265625 45.40625 46.390625 
L 45.40625 54.6875 
L 54.390625 54.6875 
L 54.390625 -20.796875 
L 45.40625 -20.796875 
z
" id="DejaVuSans-113"/>
      <path d="M 8.5 21.578125 
L 8.5 54.6875 
L 17.484375 54.6875 
L 17.484375 21.921875 
Q 17.484375 14.15625 20.5 10.265625 
Q 23.53125 6.390625 29.59375 6.390625 
Q 36.859375 6.390625 41.078125 11.03125 
Q 45.3125 15.671875 45.3125 23.6875 
L 45.3125 54.6875 
L 54.296875 54.6875 
L 54.296875 0 
L 45.3125 0 
L 45.3125 8.40625 
Q 42.046875 3.421875 37.71875 1 
Q 33.40625 -1.421875 27.6875 -1.421875 
Q 18.265625 -1.421875 13.375 4.4375 
Q 8.5 10.296875 8.5 21.578125 
z
M 31.109375 56 
z
" id="DejaVuSans-117"/>
      <path d="M 18.3125 70.21875 
L 18.3125 54.6875 
L 36.8125 54.6875 
L 36.8125 47.703125 
L 18.3125 47.703125 
L 18.3125 18.015625 
Q 18.3125 11.328125 20.140625 9.421875 
Q 21.96875 7.515625 27.59375 7.515625 
L 36.8125 7.515625 
L 36.8125 0 
L 27.59375 0 
Q 17.1875 0 13.234375 3.875 
Q 9.28125 7.765625 9.28125 18.015625 
L 9.28125 47.703125 
L 2.6875 47.703125 
L 2.6875 54.6875 
L 9.28125 54.6875 
L 9.28125 70.21875 
z
" id="DejaVuSans-116"/>
      <path d="M 18.109375 8.203125 
L 18.109375 -20.796875 
L 9.078125 -20.796875 
L 9.078125 54.6875 
L 18.109375 54.6875 
L 18.109375 46.390625 
Q 20.953125 51.265625 25.265625 53.625 
Q 29.59375 56 35.59375 56 
Q 45.5625 56 51.78125 48.09375 
Q 58.015625 40.1875 58.015625 27.296875 
Q 58.015625 14.40625 51.78125 6.484375 
Q 45.5625 -1.421875 35.59375 -1.421875 
Q 29.59375 -1.421875 25.265625 0.953125 
Q 20.953125 3.328125 18.109375 8.203125 
z
M 48.6875 27.296875 
Q 48.6875 37.203125 44.609375 42.84375 
Q 40.53125 48.484375 33.40625 48.484375 
Q 26.265625 48.484375 22.1875 42.84375 
Q 18.109375 37.203125 18.109375 27.296875 
Q 18.109375 17.390625 22.1875 11.75 
Q 26.265625 6.109375 33.40625 6.109375 
Q 40.53125 6.109375 44.609375 11.75 
Q 48.6875 17.390625 48.6875 27.296875 
z
" id="DejaVuSans-112"/>
      <path d="M 30.609375 48.390625 
Q 23.390625 48.390625 19.1875 42.75 
Q 14.984375 37.109375 14.984375 27.296875 
Q 14.984375 17.484375 19.15625 11.84375 
Q 23.34375 6.203125 30.609375 6.203125 
Q 37.796875 6.203125 41.984375 11.859375 
Q 46.1875 17.53125 46.1875 27.296875 
Q 46.1875 37.015625 41.984375 42.703125 
Q 37.796875 48.390625 30.609375 48.390625 
z
M 30.609375 56 
Q 42.328125 56 49.015625 48.375 
Q 55.71875 40.765625 55.71875 27.296875 
Q 55.71875 13.875 49.015625 6.21875 
Q 42.328125 -1.421875 30.609375 -1.421875 
Q 18.84375 -1.421875 12.171875 6.21875 
Q 5.515625 13.875 5.515625 27.296875 
Q 5.515625 40.765625 12.171875 48.375 
Q 18.84375 56 30.609375 56 
z
" id="DejaVuSans-111"/>
      <path d="M 45.40625 46.390625 
L 45.40625 75.984375 
L 54.390625 75.984375 
L 54.390625 0 
L 45.40625 0 
L 45.40625 8.203125 
Q 42.578125 3.328125 38.25 0.953125 
Q 33.9375 -1.421875 27.875 -1.421875 
Q 17.96875 -1.421875 11.734375 6.484375 
Q 5.515625 14.40625 5.515625 27.296875 
Q 5.515625 40.1875 11.734375 48.09375 
Q 17.96875 56 27.875 56 
Q 33.9375 56 38.25 53.625 
Q 42.578125 51.265625 45.40625 46.390625 
z
M 14.796875 27.296875 
Q 14.796875 17.390625 18.875 11.75 
Q 22.953125 6.109375 30.078125 6.109375 
Q 37.203125 6.109375 41.296875 11.75 
Q 45.40625 17.390625 45.40625 27.296875 
Q 45.40625 37.203125 41.296875 42.84375 
Q 37.203125 48.484375 30.078125 48.484375 
Q 22.953125 48.484375 18.875 42.84375 
Q 14.796875 37.203125 14.796875 27.296875 
z
" id="DejaVuSans-100"/>
     </defs>
     <g transform="translate(18.515313 200.681638)rotate(-90)scale(0.1 -0.1)">
      <use xlink:href="#DejaVuSans-82"/>
      <use x="69.419922" xlink:href="#DejaVuSans-101"/>
      <use x="130.943359" xlink:href="#DejaVuSans-113"/>
      <use x="194.419922" xlink:href="#DejaVuSans-117"/>
      <use x="257.798828" xlink:href="#DejaVuSans-101"/>
      <use x="319.322266" xlink:href="#DejaVuSans-115"/>
      <use x="371.421875" xlink:href="#DejaVuSans-116"/>
      <use x="410.630859" xlink:href="#DejaVuSans-115"/>
      <use x="462.730469" xlink:href="#DejaVuSans-32"/>
      <use x="494.517578" xlink:href="#DejaVuSans-112"/>
      <use x="557.994141" xlink:href="#DejaVuSans-101"/>
      <use x="619.517578" xlink:href="#DejaVuSans-114"/>
      <use x="660.630859" xlink:href="#DejaVuSans-32"/>
      <use x="692.417969" xlink:href="#DejaVuSans-115"/>
      <use x="744.517578" xlink:href="#DejaVuSans-101"/>
      <use x="806.041016" xlink:href="#DejaVuSans-99"/>
      <use x="861.021484" xlink:href="#DejaVuSans-111"/>
      <use x="922.203125" xlink:href="#DejaVuSans-110"/>
      <use x="985.582031" xlink:href="#DejaVuSans-100"/>
     </g>
    </g>
   </g>
   <g id="LineCollection_1">
    <path clip-path="url(#p13615a91e1)" d="M 91.026407 123.152792 
L 91.026407 118.490461 
" style="fill:none;stroke:#000000;stroke-width:1.5;"/>
    <path clip-path="url(#p13615a91e1)" d="M 114.385096 149.075184 
L 114.385096 128.81211 
" style="fill:none;stroke:#000000;stroke-width:1.5;"/>
    <path clip-path="url(#p13615a91e1)" d="M 137.743785 159.8015 
L 137.743785 143.903819 
" style="fill:none;stroke:#000000;stroke-width:1.5;"/>
    <path clip-path="url(#p13615a91e1)" d="M 161.102474 152.414925 
L 161.102474 143.203983 
" style="fill:none;stroke:#000000;stroke-width:1.5;"/>
    <path clip-path="url(#p13615a91e1)" d="M 184.461163 142.213515 
L 184.461163 141.589284 
" style="fill:none;stroke:#000000;stroke-width:1.5;"/>
    <path clip-path="url(#p13615a91e1)" d="M 207.819852 125.198225 
L 207.819852 120.57358 
" style="fill:none;stroke:#000000;stroke-width:1.5;"/>
    <path clip-path="url(#p13615a91e1)" d="M 231.178541 146.463281 
L 231.178541 116.376517 
" style="fill:none;stroke:#000000;stroke-width:1.5;"/>
    <path clip-path="url(#p13615a91e1)" d="M 254.537229 179.138848 
L 254.537229 139.33437 
" style="fill:none;stroke:#000000;stroke-width:1.5;"/>
    <path clip-path="url(#p13615a91e1)" d="M 277.895918 158.03679 
L 277.895918 143.716173 
" style="fill:none;stroke:#000000;stroke-width:1.5;"/>
    <path clip-path="url(#p13615a91e1)" d="M 301.254607 137.887614 
L 301.254607 119.190157 
" style="fill:none;stroke:#000000;stroke-width:1.5;"/>
    <path clip-path="url(#p13615a91e1)" d="M 324.613296 257.727157 
L 324.613296 255.615094 
" style="fill:none;stroke:#000000;stroke-width:1.5;"/>
    <path clip-path="url(#p13615a91e1)" d="M 347.971985 265.594002 
L 347.971985 264.544484 
" style="fill:none;stroke:#000000;stroke-width:1.5;"/>
    <path clip-path="url(#p13615a91e1)" d="M 371.330674 267.000848 
L 371.330674 266.439667 
" style="fill:none;stroke:#000000;stroke-width:1.5;"/>
    <path clip-path="url(#p13615a91e1)" d="M 394.689363 267.610351 
L 394.689363 267.259477 
" style="fill:none;stroke:#000000;stroke-width:1.5;"/>
    <path clip-path="url(#p13615a91e1)" d="M 418.048052 193.274784 
L 418.048052 190.046938 
" style="fill:none;stroke:#000000;stroke-width:1.5;"/>
   </g>
   <g id="LineCollection_2">
    <path clip-path="url(#p13615a91e1)" d="M 99.201948 92.312694 
L 99.201948 72.026691 
" style="fill:none;stroke:#000000;stroke-width:1.5;"/>
    <path clip-path="url(#p13615a91e1)" d="M 122.560637 45.514755 
L 122.560637 44.54956 
" style="fill:none;stroke:#000000;stroke-width:1.5;"/>
    <path clip-path="url(#p13615a91e1)" d="M 145.919326 52.111351 
L 145.919326 50.534306 
" style="fill:none;stroke:#000000;stroke-width:1.5;"/>
    <path clip-path="url(#p13615a91e1)" d="M 169.278015 84.579138 
L 169.278015 73.35032 
" style="fill:none;stroke:#000000;stroke-width:1.5;"/>
    <path clip-path="url(#p13615a91e1)" d="M 192.636704 97.722877 
L 192.636704 69.730926 
" style="fill:none;stroke:#000000;stroke-width:1.5;"/>
    <path clip-path="url(#p13615a91e1)" d="M 215.995393 106.994755 
L 215.995393 81.680114 
" style="fill:none;stroke:#000000;stroke-width:1.5;"/>
    <path clip-path="url(#p13615a91e1)" d="M 239.354082 74.571391 
L 239.354082 70.466311 
" style="fill:none;stroke:#000000;stroke-width:1.5;"/>
    <path clip-path="url(#p13615a91e1)" d="M 262.712771 68.165441 
L 262.712771 59.774751 
" style="fill:none;stroke:#000000;stroke-width:1.5;"/>
    <path clip-path="url(#p13615a91e1)" d="M 286.071459 93.543353 
L 286.071459 82.59429 
" style="fill:none;stroke:#000000;stroke-width:1.5;"/>
    <path clip-path="url(#p13615a91e1)" d="M 309.430148 63.948833 
L 309.430148 38.436927 
" style="fill:none;stroke:#000000;stroke-width:1.5;"/>
    <path clip-path="url(#p13615a91e1)" d="M 332.788837 220.64796 
L 332.788837 220.146583 
" style="fill:none;stroke:#000000;stroke-width:1.5;"/>
    <path clip-path="url(#p13615a91e1)" d="M 356.147526 259.758026 
L 356.147526 258.467865 
" style="fill:none;stroke:#000000;stroke-width:1.5;"/>
    <path clip-path="url(#p13615a91e1)" d="M 379.506215 262.552094 
L 379.506215 262.146823 
" style="fill:none;stroke:#000000;stroke-width:1.5;"/>
    <path clip-path="url(#p13615a91e1)" d="M 402.864904 264.386634 
L 402.864904 264.248916 
" style="fill:none;stroke:#000000;stroke-width:1.5;"/>
    <path clip-path="url(#p13615a91e1)" d="M 426.223593 185.302116 
L 426.223593 183.948947 
" style="fill:none;stroke:#000000;stroke-width:1.5;"/>
   </g>
   <g id="patch_33">
    <path d="M 69.77 269.575464 
L 69.77 26.88 
" style="fill:none;stroke:#000000;stroke-linecap:square;stroke-linejoin:miter;stroke-width:0.8;"/>
   </g>
   <g id="patch_34">
    <path d="M 447.48 269.575464 
L 447.48 26.88 
" style="fill:none;stroke:#000000;stroke-linecap:square;stroke-linejoin:miter;stroke-width:0.8;"/>
   </g>
   <g id="patch_35">
    <path d="M 69.77 269.575464 
L 447.48 269.575464 
" style="fill:none;stroke:#000000;stroke-linecap:square;stroke-linejoin:miter;stroke-width:0.8;"/>
   </g>
   <g id="patch_36">
    <path d="M 69.77 26.88 
L 447.48 26.88 
" style="fill:none;stroke:#000000;stroke-linecap:square;stroke-linejoin:miter;stroke-width:0.8;"/>
   </g>
   <g id="text_23">
    <!-- 0.3 -->
    <defs>
     <path d="M 10.6875 12.40625 
L 21 12.40625 
L 21 0 
L 10.6875 0 
z
" id="DejaVuSans-46"/>
    </defs>
    <g transform="translate(74.550994 117.254401)scale(0.1 -0.1)">
     <use xlink:href="#DejaVuSans-48"/>
     <use x="63.623047" xlink:href="#DejaVuSans-46"/>
     <use x="95.410156" xlink:href="#DejaVuSans-51"/>
    </g>
   </g>
   <g id="text_24">
    <!-- 0.3 -->
    <g transform="translate(97.909683 135.557641)scale(0.1 -0.1)">
     <use xlink:href="#DejaVuSans-48"/>
     <use x="63.623047" xlink:href="#DejaVuSans-46"/>
     <use x="95.410156" xlink:href="#DejaVuSans-51"/>
    </g>
   </g>
   <g id="text_25">
    <!-- 0.2 -->
    <g transform="translate(121.268372 148.595744)scale(0.1 -0.1)">
     <use xlink:href="#DejaVuSans-48"/>
     <use x="63.623047" xlink:href="#DejaVuSans-46"/>
     <use x="95.410156" xlink:href="#DejaVuSans-50"/>
    </g>
   </g>
   <g id="text_26">
    <!-- 0.2 -->
    <g transform="translate(144.627061 144.512106)scale(0.1 -0.1)">
     <use xlink:href="#DejaVuSans-48"/>
     <use x="63.623047" xlink:href="#DejaVuSans-46"/>
     <use x="95.410156" xlink:href="#DejaVuSans-50"/>
    </g>
   </g>
   <g id="text_27">
    <!-- 0.3 -->
    <g transform="translate(167.98575 138.544971)scale(0.1 -0.1)">
     <use xlink:href="#DejaVuSans-48"/>
     <use x="63.623047" xlink:href="#DejaVuSans-46"/>
     <use x="95.410156" xlink:href="#DejaVuSans-51"/>
    </g>
   </g>
   <g id="text_28">
    <!-- 0.3 -->
    <g transform="translate(191.344439 119.339319)scale(0.1 -0.1)">
     <use xlink:href="#DejaVuSans-48"/>
     <use x="63.623047" xlink:href="#DejaVuSans-46"/>
     <use x="95.410156" xlink:href="#DejaVuSans-51"/>
    </g>
   </g>
   <g id="text_29">
    <!-- 0.3 -->
    <g transform="translate(214.703128 127.958656)scale(0.1 -0.1)">
     <use xlink:href="#DejaVuSans-48"/>
     <use x="63.623047" xlink:href="#DejaVuSans-46"/>
     <use x="95.410156" xlink:href="#DejaVuSans-51"/>
    </g>
   </g>
   <g id="text_30">
    <!-- 0.2 -->
    <g transform="translate(238.061817 156.053533)scale(0.1 -0.1)">
     <use xlink:href="#DejaVuSans-48"/>
     <use x="63.623047" xlink:href="#DejaVuSans-46"/>
     <use x="95.410156" xlink:href="#DejaVuSans-50"/>
    </g>
   </g>
   <g id="text_31">
    <!-- 0.2 -->
    <g transform="translate(261.420505 147.609804)scale(0.1 -0.1)">
     <use xlink:href="#DejaVuSans-48"/>
     <use x="63.623047" xlink:href="#DejaVuSans-46"/>
     <use x="95.410156" xlink:href="#DejaVuSans-50"/>
    </g>
   </g>
   <g id="text_32">
    <!-- 0.3 -->
    <g transform="translate(284.779194 125.048832)scale(0.1 -0.1)">
     <use xlink:href="#DejaVuSans-48"/>
     <use x="63.623047" xlink:href="#DejaVuSans-46"/>
     <use x="95.410156" xlink:href="#DejaVuSans-51"/>
    </g>
   </g>
   <g id="text_33">
    <!-- 0.2 -->
    <g transform="translate(401.572639 188.802027)scale(0.1 -0.1)">
     <use xlink:href="#DejaVuSans-48"/>
     <use x="63.623047" xlink:href="#DejaVuSans-46"/>
     <use x="95.410156" xlink:href="#DejaVuSans-50"/>
    </g>
   </g>
   <g id="text_34">
    <!-- 0.4 -->
    <g transform="translate(99.774236 78.215947)scale(0.1 -0.1)">
     <use xlink:href="#DejaVuSans-48"/>
     <use x="63.623047" xlink:href="#DejaVuSans-46"/>
     <use x="95.410156" xlink:href="#DejaVuSans-52"/>
    </g>
   </g>
   <g id="text_35">
    <!-- 0.5 -->
    <g transform="translate(123.132925 40.707037)scale(0.1 -0.1)">
     <use xlink:href="#DejaVuSans-48"/>
     <use x="63.623047" xlink:href="#DejaVuSans-46"/>
     <use x="95.410156" xlink:href="#DejaVuSans-53"/>
    </g>
   </g>
   <g id="text_36">
    <!-- 0.4 -->
    <g transform="translate(146.491614 47.060615)scale(0.1 -0.1)">
     <use xlink:href="#DejaVuSans-48"/>
     <use x="63.623047" xlink:href="#DejaVuSans-46"/>
     <use x="95.410156" xlink:href="#DejaVuSans-52"/>
    </g>
   </g>
   <g id="text_37">
    <!-- 0.4 -->
    <g transform="translate(169.850303 74.978935)scale(0.1 -0.1)">
     <use xlink:href="#DejaVuSans-48"/>
     <use x="63.623047" xlink:href="#DejaVuSans-46"/>
     <use x="95.410156" xlink:href="#DejaVuSans-52"/>
    </g>
   </g>
   <g id="text_38">
    <!-- 0.4 -->
    <g transform="translate(193.208992 79.788728)scale(0.1 -0.1)">
     <use xlink:href="#DejaVuSans-48"/>
     <use x="63.623047" xlink:href="#DejaVuSans-46"/>
     <use x="95.410156" xlink:href="#DejaVuSans-52"/>
    </g>
   </g>
   <g id="text_39">
    <!-- 0.4 -->
    <g transform="translate(216.567681 90.505367)scale(0.1 -0.1)">
     <use xlink:href="#DejaVuSans-48"/>
     <use x="63.623047" xlink:href="#DejaVuSans-46"/>
     <use x="95.410156" xlink:href="#DejaVuSans-52"/>
    </g>
   </g>
   <g id="text_40">
    <!-- 0.4 -->
    <g transform="translate(239.92637 68.468597)scale(0.1 -0.1)">
     <use xlink:href="#DejaVuSans-48"/>
     <use x="63.623047" xlink:href="#DejaVuSans-46"/>
     <use x="95.410156" xlink:href="#DejaVuSans-52"/>
    </g>
   </g>
   <g id="text_41">
    <!-- 0.4 -->
    <g transform="translate(263.285058 59.834355)scale(0.1 -0.1)">
     <use xlink:href="#DejaVuSans-48"/>
     <use x="63.623047" xlink:href="#DejaVuSans-46"/>
     <use x="95.410156" xlink:href="#DejaVuSans-52"/>
    </g>
   </g>
   <g id="text_42">
    <!-- 0.4 -->
    <g transform="translate(286.643747 84.174067)scale(0.1 -0.1)">
     <use xlink:href="#DejaVuSans-48"/>
     <use x="63.623047" xlink:href="#DejaVuSans-46"/>
     <use x="95.410156" xlink:href="#DejaVuSans-52"/>
    </g>
   </g>
   <g id="text_43">
    <!-- 0.4 -->
    <g transform="translate(310.002436 46.929367)scale(0.1 -0.1)">
     <use xlink:href="#DejaVuSans-48"/>
     <use x="63.623047" xlink:href="#DejaVuSans-46"/>
     <use x="95.410156" xlink:href="#DejaVuSans-52"/>
    </g>
   </g>
   <g id="text_44">
    <!-- 0.1 -->
    <g transform="translate(333.361125 217.825802)scale(0.1 -0.1)">
     <use xlink:href="#DejaVuSans-48"/>
     <use x="63.623047" xlink:href="#DejaVuSans-46"/>
     <use x="95.410156" xlink:href="#DejaVuSans-49"/>
    </g>
   </g>
   <g id="text_45">
    <!-- 0.2 -->
    <g transform="translate(426.795881 181.696345)scale(0.1 -0.1)">
     <use xlink:href="#DejaVuSans-48"/>
     <use x="63.623047" xlink:href="#DejaVuSans-46"/>
     <use x="95.410156" xlink:href="#DejaVuSans-50"/>
    </g>
   </g>
   <g id="text_46">
    <!-- Requests per second by programs and benchmarks -->
    <defs>
     <path d="M 48.6875 27.296875 
Q 48.6875 37.203125 44.609375 42.84375 
Q 40.53125 48.484375 33.40625 48.484375 
Q 26.265625 48.484375 22.1875 42.84375 
Q 18.109375 37.203125 18.109375 27.296875 
Q 18.109375 17.390625 22.1875 11.75 
Q 26.265625 6.109375 33.40625 6.109375 
Q 40.53125 6.109375 44.609375 11.75 
Q 48.6875 17.390625 48.6875 27.296875 
z
M 18.109375 46.390625 
Q 20.953125 51.265625 25.265625 53.625 
Q 29.59375 56 35.59375 56 
Q 45.5625 56 51.78125 48.09375 
Q 58.015625 40.1875 58.015625 27.296875 
Q 58.015625 14.40625 51.78125 6.484375 
Q 45.5625 -1.421875 35.59375 -1.421875 
Q 29.59375 -1.421875 25.265625 0.953125 
Q 20.953125 3.328125 18.109375 8.203125 
L 18.109375 0 
L 9.078125 0 
L 9.078125 75.984375 
L 18.109375 75.984375 
z
" id="DejaVuSans-98"/>
     <path d="M 32.171875 -5.078125 
Q 28.375 -14.84375 24.75 -17.8125 
Q 21.140625 -20.796875 15.09375 -20.796875 
L 7.90625 -20.796875 
L 7.90625 -13.28125 
L 13.1875 -13.28125 
Q 16.890625 -13.28125 18.9375 -11.515625 
Q 21 -9.765625 23.484375 -3.21875 
L 25.09375 0.875 
L 2.984375 54.6875 
L 12.5 54.6875 
L 29.59375 11.921875 
L 46.6875 54.6875 
L 56.203125 54.6875 
z
" id="DejaVuSans-121"/>
     <path d="M 45.40625 27.984375 
Q 45.40625 37.75 41.375 43.109375 
Q 37.359375 48.484375 30.078125 48.484375 
Q 22.859375 48.484375 18.828125 43.109375 
Q 14.796875 37.75 14.796875 27.984375 
Q 14.796875 18.265625 18.828125 12.890625 
Q 22.859375 7.515625 30.078125 7.515625 
Q 37.359375 7.515625 41.375 12.890625 
Q 45.40625 18.265625 45.40625 27.984375 
z
M 54.390625 6.78125 
Q 54.390625 -7.171875 48.1875 -13.984375 
Q 42 -20.796875 29.203125 -20.796875 
Q 24.46875 -20.796875 20.265625 -20.09375 
Q 16.0625 -19.390625 12.109375 -17.921875 
L 12.109375 -9.1875 
Q 16.0625 -11.328125 19.921875 -12.34375 
Q 23.78125 -13.375 27.78125 -13.375 
Q 36.625 -13.375 41.015625 -8.765625 
Q 45.40625 -4.15625 45.40625 5.171875 
L 45.40625 9.625 
Q 42.625 4.78125 38.28125 2.390625 
Q 33.9375 0 27.875 0 
Q 17.828125 0 11.671875 7.65625 
Q 5.515625 15.328125 5.515625 27.984375 
Q 5.515625 40.671875 11.671875 48.328125 
Q 17.828125 56 27.875 56 
Q 33.9375 56 38.28125 53.609375 
Q 42.625 51.21875 45.40625 46.390625 
L 45.40625 54.6875 
L 54.390625 54.6875 
z
" id="DejaVuSans-103"/>
    </defs>
    <g transform="translate(103.54375 20.88)scale(0.12 -0.12)">
     <use xlink:href="#DejaVuSans-82"/>
     <use x="69.419922" xlink:href="#DejaVuSans-101"/>
     <use x="130.943359" xlink:href="#DejaVuSans-113"/>
     <use x="194.419922" xlink:href="#DejaVuSans-117"/>
     <use x="257.798828" xlink:href="#DejaVuSans-101"/>
     <use x="319.322266" xlink:href="#DejaVuSans-115"/>
     <use x="371.421875" xlink:href="#DejaVuSans-116"/>
     <use x="410.630859" xlink:href="#DejaVuSans-115"/>
     <use x="462.730469" xlink:href="#DejaVuSans-32"/>
     <use x="494.517578" xlink:href="#DejaVuSans-112"/>
     <use x="557.994141" xlink:href="#DejaVuSans-101"/>
     <use x="619.517578" xlink:href="#DejaVuSans-114"/>
     <use x="660.630859" xlink:href="#DejaVuSans-32"/>
     <use x="692.417969" xlink:href="#DejaVuSans-115"/>
     <use x="744.517578" xlink:href="#DejaVuSans-101"/>
     <use x="806.041016" xlink:href="#DejaVuSans-99"/>
     <use x="861.021484" xlink:href="#DejaVuSans-111"/>
     <use x="922.203125" xlink:href="#DejaVuSans-110"/>
     <use x="985.582031" xlink:href="#DejaVuSans-100"/>
     <use x="1049.058594" xlink:href="#DejaVuSans-32"/>
     <use x="1080.845703" xlink:href="#DejaVuSans-98"/>
     <use x="1144.322266" xlink:href="#DejaVuSans-121"/>
     <use x="1203.501953" xlink:href="#DejaVuSans-32"/>
     <use x="1235.289062" xlink:href="#DejaVuSans-112"/>
     <use x="1298.765625" xlink:href="#DejaVuSans-114"/>
     <use x="1339.847656" xlink:href="#DejaVuSans-111"/>
     <use x="1401.029297" xlink:href="#DejaVuSans-103"/>
     <use x="1464.505859" xlink:href="#DejaVuSans-114"/>
     <use x="1505.619141" xlink:href="#DejaVuSans-97"/>
     <use x="1566.898438" xlink:href="#DejaVuSans-109"/>
     <use x="1664.310547" xlink:href="#DejaVuSans-115"/>
     <use x="1716.410156" xlink:href="#DejaVuSans-32"/>
     <use x="1748.197266" xlink:href="#DejaVuSans-97"/>
     <use x="1809.476562" xlink:href="#DejaVuSans-110"/>
     <use x="1872.855469" xlink:href="#DejaVuSans-100"/>
     <use x="1936.332031" xlink:href="#DejaVuSans-32"/>
     <use x="1968.119141" xlink:href="#DejaVuSans-98"/>
     <use x="2031.595703" xlink:href="#DejaVuSans-101"/>
     <use x="2093.119141" xlink:href="#DejaVuSans-110"/>
     <use x="2156.498047" xlink:href="#DejaVuSans-99"/>
     <use x="2211.478516" xlink:href="#DejaVuSans-104"/>
     <use x="2274.857422" xlink:href="#DejaVuSans-109"/>
     <use x="2372.269531" xlink:href="#DejaVuSans-97"/>
     <use x="2433.548828" xlink:href="#DejaVuSans-114"/>
     <use x="2474.662109" xlink:href="#DejaVuSans-107"/>
     <use x="2532.572266" xlink:href="#DejaVuSans-115"/>
    </g>
   </g>
   <g id="legend_1">
    <g id="patch_37">
     <path d="M 381.876875 64.23625 
L 440.48 64.23625 
Q 442.48 64.23625 442.48 62.23625 
L 442.48 33.88 
Q 442.48 31.88 440.48 31.88 
L 381.876875 31.88 
Q 379.876875 31.88 379.876875 33.88 
L 379.876875 62.23625 
Q 379.876875 64.23625 381.876875 64.23625 
z
" style="fill:#ffffff;opacity:0.8;stroke:#cccccc;stroke-linejoin:miter;"/>
    </g>
    <g id="patch_38">
     <path d="M 383.876875 43.478437 
L 403.876875 43.478437 
L 403.876875 36.478437 
L 383.876875 36.478437 
z
" style="fill:#87ceeb;"/>
    </g>
    <g id="text_47">
     <!-- pydis -->
     <defs>
      <path d="M 9.421875 54.6875 
L 18.40625 54.6875 
L 18.40625 0 
L 9.421875 0 
z
M 9.421875 75.984375 
L 18.40625 75.984375 
L 18.40625 64.59375 
L 9.421875 64.59375 
z
" id="DejaVuSans-105"/>
     </defs>
     <g transform="translate(411.876875 43.478437)scale(0.1 -0.1)">
      <use xlink:href="#DejaVuSans-112"/>
      <use x="63.476562" xlink:href="#DejaVuSans-121"/>
      <use x="122.65625" xlink:href="#DejaVuSans-100"/>
      <use x="186.132812" xlink:href="#DejaVuSans-105"/>
      <use x="213.916016" xlink:href="#DejaVuSans-115"/>
     </g>
    </g>
    <g id="patch_39">
     <path d="M 383.876875 58.156563 
L 403.876875 58.156563 
L 403.876875 51.156563 
L 383.876875 51.156563 
z
" style="fill:#cd5c5c;"/>
    </g>
    <g id="text_48">
     <!-- redis -->
     <g transform="translate(411.876875 58.156563)scale(0.1 -0.1)">
      <use xlink:href="#DejaVuSans-114"/>
      <use x="41.082031" xlink:href="#DejaVuSans-101"/>
      <use x="102.605469" xlink:href="#DejaVuSans-100"/>
      <use x="166.082031" xlink:href="#DejaVuSans-105"/>
      <use x="193.865234" xlink:href="#DejaVuSans-115"/>
     </g>
    </g>
   </g>
  </g>
 </g>
 <defs>
  <clipPath id="p13615a91e1">
   <rect height="242.695464" width="377.71" x="69.77" y="26.88"/>
  </clipPath>
 </defs>
</svg>
